<svg id="eGqJSt0KvIm1" xmlns="http://www.w3.org/2000/svg" xmlns:xlink="http://www.w3.org/1999/xlink" viewBox="0 0 300 300" shape-rendering="geometricPrecision" text-rendering="geometricPrecision" project-id="e76e6fcb330941318e75f98508710504" export-id="f512c6de104a4b6a865292b688d08149" cached="false" style="background-color:transparent"><rect width="120.975776" height="169.831379" rx="0" ry="0" transform="matrix(1.422734 0 0 1.536435 63.941825 19.532563)" fill="#060000" stroke-width="0"/><rect width="106.176336" height="150.00494" rx="0" ry="0" transform="matrix(1.440894 0 0 1.594056 73.505577 30.441863)" fill="#fcfafa" stroke-linecap="round" stroke-linejoin="bevel"/><rect width="81.248148" height="5.97432" rx="0" ry="0" transform="matrix(1.481977 0 0 1.551154 89.335448 71.690468)" fill="#000308" stroke-width="0"/><rect width="81.248148" height="5.97432" rx="0" ry="0" transform="matrix(1.481977 0 0 1.551154 89.335448 191.329166)" fill="#000308" stroke-width="0"/><rect width="81.248148" height="5.97432" rx="0" ry="0" transform="matrix(1.481977 0 0 1.551154 89.335448 217.141511)" fill="#000308" stroke-width="0"/><rect width="81.248148" height="5.97432" rx="0" ry="0" transform="matrix(1.481977 0 0 1.551154 89.335448 165.635063)" fill="#000308" stroke-width="0"/><rect width="81.248148" height="5.97432" rx="0" ry="0" transform="matrix(1.481977 0 0 1.551154 89.335448 140.73291)" fill="#000308" stroke-width="0"/><rect width="81.248148" height="5.97432" rx="0" ry="0" transform="matrix(1.481977 0 0 1.551154 89.335448 116.452302)" fill="#000308" stroke-width="0"/><rect width="81.248148" height="5.97432" rx="0" ry="0" transform="matrix(1.481977 0 0 1.551154 89.335448 94.900306)" fill="#000308" stroke-width="0"/><rect width="66.286706" height="18.797763" rx="0" ry="0" transform="translate(116.558335 19.532563)" stroke-width="0"/><rect width="20.439098" height="4.306942" rx="0" ry="0" transform="matrix(1.691656 0 0 0.957601 89.050825 53.9261)" fill="#000104" stroke-width="0"/><rect width="30.19985" height="1.174621" rx="0" ry="0" transform="matrix(1.781353 0 0 3.23932 155.946744 257.031797)" fill="#000001" stroke-width="0"/><path d="M172.09239,236.19298c.91631,5.49789,3.22413,10.82762,4.03235,16.48522" fill="none" stroke="#8a0a71" stroke-width="0.6"/><path d="M170.31341,237.37896c8.55216-5.13129,18.40508,1.68067,12.92726,11.26688-2.63368,4.60894-7.88558,3.12146-10.43668,6.52293" transform="translate(0 0.000001)" fill="none" stroke="#000104" stroke-width="0.6"/><path d="M181.69888,241.17412c2.17653,3.80893,3.43401,11.28025,1.77898,15.41783" transform="matrix(1 0 0 1.161538 0.000001-40.204068)" fill="none" stroke="#8a0a71" stroke-width="0.6"/><path d="M188.9334,238.68355c-2.86906.57381-5.57616,1.40027-8.30191,2.49057" fill="none" stroke="#000309" stroke-width="0.6"/><path d="M183.83366,246.98546c2.68648-2.23873,4.20673-2.96497,7.70892-2.96497" fill="none" stroke="#000205" stroke-width="0.6"/></svg>
