<svg id="eQxg2rcCUmY1" xmlns="http://www.w3.org/2000/svg" xmlns:xlink="http://www.w3.org/1999/xlink" viewBox="0 0 300 300" shape-rendering="geometricPrecision" text-rendering="geometricPrecision" project-id="e76e6fcb330941318e75f98508710504" export-id="58263cc190a242f1bd6ae846a0396e29" cached="false"><rect width="120.975776" height="169.831379" rx="0" ry="0" transform="translate(89.512112 65.084311)" fill="#060000" stroke-width="0"/><rect width="106.176336" height="150.00494" rx="0" ry="0" transform="translate(96.911832 74.99753)" fill="#fcfafa" stroke-linecap="round" stroke-linejoin="bevel"/><rect width="81.248148" height="5.97432" rx="0" ry="0" transform="translate(108.915317 105.866)" fill="#000308" stroke-width="0"/><rect width="81.248148" height="5.97432" rx="0" ry="0" transform="translate(109.375926 184.185392)" fill="#000308" stroke-width="0"/><rect width="81.248148" height="5.97432" rx="0" ry="0" transform="translate(109.375926 167.368345)" fill="#000308" stroke-width="0"/><rect width="81.248148" height="5.97432" rx="0" ry="0" transform="translate(109.375926 150.000001)" fill="#000308" stroke-width="0"/><rect width="81.248148" height="5.97432" rx="0" ry="0" transform="translate(108.915317 136.136686)" fill="#000308" stroke-width="0"/><rect width="81.248148" height="5.97432" rx="0" ry="0" transform="translate(109.375926 121.722074)" fill="#000308" stroke-width="0"/><rect width="66.286706" height="18.797763" rx="0" ry="0" transform="translate(116.558335 65.084311)" stroke-width="0"/><rect width="20.439098" height="4.306942" rx="0" ry="0" transform="translate(109.375926 90.723743)" fill="#010918" stroke-width="0"/><rect width="30.19985" height="1.174621" rx="0" ry="0" transform="translate(159.963615 211.318107)" fill="#000001" stroke-width="0"/><path d="M167.133878,200.596255l.384602.961515c.47896,2.39481.08897,4.93963-.38461,7.30751" transform="translate(0 0.000001)" fill="none" stroke="#be2785" stroke-width="0.6"/><path d="M165.21085,203.8654c2.5226-3.78389,10.46481-5.06777,7.11521.96151-1.85044,3.3308-6.62822,1.06769-8.46133,5.19218" fill="none" stroke="#01050d" stroke-width="0.6"/><path d="M169.82612,203.4808c.93598,2.18396,1.15382,4.37088,1.15382,6.7306" transform="translate(0-.19231)" fill="none" stroke="#be2785" stroke-width="0.6"/><path d="M174.63369,205.59613c-1.38752.23125-2.73008.4382-4.03836.96152" fill="none" stroke="#3f5787" stroke-width="0.6"/><path d="M176.74902,201.75007c-2.87867.47978-5.31392.38073-7.88442,1.92303" fill="none" stroke="#3f5787" stroke-width="0.6"/></svg>
